<svg width="32" height="32" viewBox="0 0 32 32" fill="none" xmlns="http://www.w3.org/2000/svg">
<rect width="32" height="32" rx="9" fill="white"/>
<path d="M16 20H23" stroke="#414AF2" stroke-width="3"/>
<path d="M16 13H29" stroke="#414AF2" stroke-width="3"/>
<path d="M3 5H29" stroke="#414AF2" stroke-width="3"/>
<path d="M16 5V29" stroke="#414AF2" stroke-width="3" stroke-linecap="round"/>
<path d="M12.1661 20.04C12.1661 20.8613 11.8515 21.56 11.2221 22.136C10.5928 22.7013 9.67013 23.016 8.45413 23.08V24.92H7.65413V23.096C6.87546 23.0533 6.13946 22.904 5.44613 22.648C4.76346 22.3813 4.22479 22.0453 3.83013 21.64L4.29413 20.728C4.66746 21.0907 5.15279 21.3947 5.75013 21.64C6.35813 21.8853 6.99279 22.0293 7.65413 22.072V17.864C6.91813 17.6827 6.30479 17.4907 5.81413 17.288C5.32346 17.0747 4.91279 16.7707 4.58213 16.376C4.26213 15.9707 4.10213 15.4373 4.10213 14.776C4.10213 13.9547 4.40079 13.2667 4.99813 12.712C5.59546 12.1467 6.48079 11.816 7.65413 11.72V9.88H8.45413V11.704C9.06213 11.7253 9.64879 11.8267 10.2141 12.008C10.7901 12.1787 11.2861 12.408 11.7021 12.696L11.3021 13.64C10.8648 13.3627 10.4008 13.144 9.91013 12.984C9.41946 12.824 8.93413 12.7333 8.45413 12.712V16.952C9.24346 17.144 9.88879 17.3413 10.3901 17.544C10.8915 17.736 11.3128 18.0347 11.6541 18.44C11.9955 18.8453 12.1661 19.3787 12.1661 20.04ZM5.27013 14.744C5.27013 15.2987 5.47279 15.72 5.87813 16.008C6.29413 16.296 6.88613 16.5413 7.65413 16.744V12.744C6.86479 12.808 6.26746 13.0267 5.86213 13.4C5.46746 13.7627 5.27013 14.2107 5.27013 14.744ZM8.45413 22.072C9.29679 22.008 9.93146 21.8 10.3581 21.448C10.7848 21.096 10.9981 20.648 10.9981 20.104C10.9981 19.528 10.7795 19.096 10.3421 18.808C9.90479 18.52 9.27546 18.2747 8.45413 18.072V22.072Z" fill="#4C4C4C"/>
</svg>
